<svg xmlns="http://www.w3.org/2000/svg" viewBox="0 0 950 200"><defs><style>.a{fill:#036eb8;}.b{fill:#2990d0;}.c{fill:#005ead;}.d{fill:#187fc4;}</style></defs><path class="a" d="M241.08656,127.16543V73.21922h8.10665a35.45643,35.45643,0,0,1,8.63023.83876,12.97006,12.97006,0,0,1,5.48462,2.8294,14.68537,14.68537,0,0,1,3.59869,5.13625,15.531,15.531,0,0,1,1.36338,6.28917,12.74683,12.74683,0,0,1-4.43746,9.81839,13.03783,13.03783,0,0,1,6.77853,5.13521,15.20474,15.20474,0,0,1-1.95746,19.14742,14.6773,14.6773,0,0,1-6.04448,3.73867,35.13739,35.13739,0,0,1-9.18906,1.01294Zm8.14087-30.78123H251.779q4.54115,0,6.65515-2.0093a7.79386,7.79386,0,0,0,2.114-5.92214,7.43172,7.43172,0,0,0-2.16585-5.78321q-2.16636-1.97352-6.28916-1.974h-2.86568Zm0,23.12973H254.259q5.5209,0,8.10666-2.16689a7.48848,7.48848,0,0,0,2.72468-5.93977,7.60865,7.60865,0,0,0-2.62-5.86926q-2.55205-2.34056-9.11959-2.34107h-4.12331Z"/><path class="a" d="M305.24929,104.17567l16.70163,22.98976h-9.95836L296.58484,105.0839h-1.46809v22.08153h-8.14087V73.21922h9.53846q10.69188,0,15.444,4.01756a14.76276,14.76276,0,0,1,5.241,11.81006,15.33074,15.33074,0,0,1-3.28455,9.85261A14.64438,14.64438,0,0,1,305.24929,104.17567Zm-10.13254-6.18445h2.58575q11.56434,0,11.56538-8.83966,0-8.28135-11.2502-8.28084h-2.90093Z"/><path class="a" d="M340.97185,73.21922v32.493q0,6.95322,2.27161,10.16779a12.14922,12.14922,0,0,0,19.11217,0q2.27057-3.10881,2.27056-10.16779v-32.493h8.14087v34.72932a19.43043,19.43043,0,0,1-5.31043,14.04538,20.5403,20.5403,0,0,1-29.31418,0,19.43118,19.43118,0,0,1-5.31147-14.04538V73.21922Z"/><path class="a" d="M429.13832,76.11912v9.64317q-7.059-5.905-14.60525-5.90451a18.59578,18.59578,0,0,0-14.01013,5.974,20.14421,20.14421,0,0,0-5.73033,14.53474,19.65693,19.65693,0,0,0,5.73033,14.32532,18.92359,18.92359,0,0,0,14.04538,5.835,17.22634,17.22634,0,0,0,7.30211-1.39759,20.99868,20.99868,0,0,0,3.47635-1.887,41.05791,41.05791,0,0,0,3.79154-2.86465v9.81839a29.40542,29.40542,0,0,1-14.67471,3.9481,27.07241,27.07241,0,0,1-19.74047-8.07141,26.75749,26.75749,0,0,1-8.14086-19.63574A27.70035,27.70035,0,0,1,393.395,82.05888,27.12681,27.12681,0,0,1,415.0919,72.171,27.5421,27.5421,0,0,1,429.13832,76.11912Z"/><path class="a" d="M472.75707,80.87072H451.12862v12.963h20.99912v7.6515H451.12862v18.02873h21.62845v7.6515H442.98775V73.21922h29.76932Z"/><path class="a" d="M523.58669,103.86048,505.97683,73.21922h9.36428l12.33364,21.55692,12.36786-21.55692h9.36428l-17.67933,30.64126v23.305h-8.14087Z"/><path class="a" d="M567.34438,73.21922v32.493q0,6.95322,2.2716,10.16779a12.14922,12.14922,0,0,0,19.11217,0q2.27056-3.10881,2.27057-10.16779v-32.493h8.14087v34.72932a19.43039,19.43039,0,0,1-5.31044,14.04538,20.54029,20.54029,0,0,1-29.31417,0,19.43113,19.43113,0,0,1-5.31147-14.04538V73.21922Z"/><path class="a" d="M641.30372,127.16543V73.21922h11.3207q8.14139,0,12.85826,1.607a24.0827,24.0827,0,0,1,9.18906,5.34569q8.34978,7.61728,8.3503,20.02039,0,12.43836-8.6997,20.12512a25.402,25.402,0,0,1-9.15484,5.34568q-4.47271,1.50231-12.683,1.50231Zm8.14087-7.6515h3.6692a30.63159,30.63159,0,0,0,9.11959-1.15291,18.51825,18.51825,0,0,0,12.57729-18.1687q0-8.87386-5.93976-14.39477-5.34518-4.92682-15.75712-4.92683h-3.6692Z"/><path class="a" d="M726.60554,80.87072H704.97709v12.963h20.99912v7.6515H704.97709v18.02873h21.62845v7.6515H696.83622V73.21922h29.76932Z"/><path class="a" d="M771.37617,81.25537l-6.60331,3.91284a11.34563,11.34563,0,0,0-3.52923-4.19277,8.22976,8.22976,0,0,0-4.50692-1.11766,8.33009,8.33009,0,0,0-5.62562,1.92117,5.95525,5.95525,0,0,0-2.23532,4.7516q0,3.94861,5.86926,6.35967l5.38094,2.2011q6.56754,2.6547,9.60792,6.481a14.605,14.605,0,0,1,3.03987,9.38087,16.48363,16.48363,0,0,1-4.961,12.29943,17.03229,17.03229,0,0,1-12.4031,4.89157A16.59213,16.59213,0,0,1,743.809,123.9856q-4.50692-4.157-5.62458-11.70432l8.24559-1.81645q.5583,4.75108,1.95642,6.56806a9.29683,9.29683,0,0,0,13.66073.94348,8.82191,8.82191,0,0,0,2.51629-6.46335,9.10248,9.10248,0,0,0-.43649-2.88331,7.35151,7.35151,0,0,0-1.36338-2.41053,10.88938,10.88938,0,0,0-2.39291-2.06114,23.00344,23.00344,0,0,0-3.494-1.83408l-5.20572-2.16689q-11.07756-4.6811-11.076-13.696a12.99594,12.99594,0,0,1,4.64689-10.16779A16.79314,16.79314,0,0,1,756.80617,72.171Q766.13572,72.171,771.37617,81.25537Z"/><path class="a" d="M794.311,73.21922v53.94621h-8.14087V73.21922Z"/><path class="a" d="M838.59328,99.07363h22.291v1.78224a36.83243,36.83243,0,0,1-1.4318,10.76187,22.87823,22.87823,0,0,1-4.7174,8.10562,24.4363,24.4363,0,0,1-19.11113,8.455,26.274,26.274,0,0,1-19.3921-8.17508,28.17744,28.17744,0,0,1,.14-39.62193A28.37472,28.37472,0,0,1,848.167,74.75574a34.07844,34.07844,0,0,1,10.30672,8.38555l-5.7998,5.55615q-6.63908-8.83965-16.177-8.83966a19.32586,19.32586,0,0,0-14.36057,5.90451,19.71749,19.71749,0,0,0-5.79979,14.53475,19.11911,19.11911,0,0,0,6.46438,14.84889q6.04344,5.41671,13.1019,5.41619a16.26738,16.26738,0,0,0,10.79608-4.05281,14.41832,14.41832,0,0,0,5.34569-9.78314h-13.4513Z"/><path class="a" d="M874.69945,127.16543V69.55l39.342,41.15846V73.21922h8.14087V130.45l-39.342-41.05374v37.76919Z"/><polygon class="b" points="159.435 87.754 137.215 33.333 121.409 33.333 151.532 107.111 159.435 87.754"/><polygon class="c" points="197.462 33.333 143.022 166.666 158.829 166.666 213.269 33.333 197.462 33.333"/><path class="d" d="M100.08958,118.56249a22.35675,22.35675,0,0,1,2.91312,11.06745,22.06527,22.06527,0,0,1-21.905,22.222H33.86659l-6.04891,14.81469h53.28c20.16291,0,36.50839-16.582,36.50839-37.03673a37.276,37.276,0,0,0-4.85533-18.4666A50.87489,50.87489,0,0,1,100.08958,118.56249Z"/><path class="a" d="M82.25111,33.35087,76.209,48.149h4.986a22.2244,22.2244,0,0,1,0,44.44421H58.06214L52.0133,107.40791H81.195c20.163,0,36.50838-16.582,36.50838-37.03672C117.70333,50.27479,101.92556,33.918,82.25111,33.35087Z"/></svg>